<svg xmlns="http://www.w3.org/2000/svg" xmlns:xlink="http://www.w3.org/1999/xlink" width="207" zoomAndPan="magnify" viewBox="0 0 155.25 33.749998" height="45" preserveAspectRatio="xMidYMid meet" version="1.0"><path fill="#050a30" d="M 24.253906 11.347656 L 18.355469 11.347656 L 17.824219 16.609375 L 23.226562 16.609375 C 26.527344 16.609375 26.773438 17.238281 26.773438 19.382812 L 26.773438 20.289062 L 22.40625 20.289062 C 18.121094 20.289062 15.722656 21.789062 15.722656 25.988281 C 15.722656 29.550781 17.777344 32.125 21.636719 32.125 C 23.050781 32.125 25.195312 31.910156 27.597656 30.578125 L 27.828125 31.90625 L 33.089844 31.90625 L 33.089844 19.421875 C 33.089844 13.636719 31.5 11.347656 24.253906 11.347656 Z M 26.773438 26.804688 C 25.832031 27.234375 25.070312 27.65625 23.78125 27.65625 C 22.582031 27.65625 22.035156 27.058594 22.035156 25.90625 C 22.035156 24.746094 22.621094 24.5 23.957031 24.5 L 26.773438 24.5 Z M 152.464844 11.347656 L 145.621094 11.347656 L 139.835938 20.507812 L 139.835938 1.878906 L 133.523438 2.929688 L 133.523438 31.867188 L 139.835938 31.867188 L 139.835938 22.222656 L 145.621094 31.867188 L 152.464844 31.867188 L 146.144531 21.34375 Z M 102.304688 11.066406 C 94.886719 11.066406 93.078125 15.226562 93.078125 19.515625 L 93.078125 23.65625 C 93.078125 27.941406 94.886719 32.101562 102.304688 32.101562 C 109.722656 32.101562 111.496094 27.941406 111.496094 23.65625 L 111.496094 19.515625 C 111.496094 15.226562 109.722656 11.066406 102.304688 11.066406 Z M 105.175781 24.265625 C 105.175781 25.726562 104.425781 26.898438 102.285156 26.898438 C 100.136719 26.898438 99.394531 25.726562 99.394531 24.265625 L 99.394531 18.945312 C 99.394531 17.488281 100.136719 16.320312 102.285156 16.320312 C 104.425781 16.320312 105.175781 17.488281 105.175781 18.945312 Z M 16.28125 11.347656 L 11.511719 11.347656 L 11.519531 8.714844 C 11.519531 7.34375 11.648438 6.609375 13.617188 6.609375 L 16.25 6.609375 L 16.25 1.347656 L 12.039062 1.347656 C 6.976562 1.347656 5.199219 3.902344 5.199219 8.191406 L 5.199219 11.347656 L 2.042969 11.347656 L 2.042969 16.609375 L 5.199219 16.609375 L 5.199219 31.867188 L 11.511719 31.867188 L 11.511719 16.609375 L 15.722656 16.609375 Z M 35.195312 19.765625 L 35.195312 23.449219 C 35.195312 28.59375 37.886719 32.152344 44.664062 32.152344 C 46.246094 32.152344 48.113281 31.984375 50.980469 31.339844 L 50.980469 26.210938 C 47.707031 26.773438 46.765625 26.898438 45.191406 26.898438 C 42.359375 26.898438 41.503906 26.273438 41.503906 23.875 L 41.503906 19.332031 C 41.503906 16.933594 42.359375 16.308594 45.191406 16.308594 C 46.765625 16.308594 47.707031 16.433594 50.980469 16.992188 L 50.980469 11.867188 C 48.113281 11.222656 46.246094 11.050781 44.664062 11.050781 C 37.886719 11.050781 35.195312 14.617188 35.195312 19.765625 Z M 83.898438 11.050781 C 82.292969 11.050781 80.527344 11.308594 79.164062 11.816406 L 79.164062 1.878906 L 72.851562 2.929688 L 72.851562 31.339844 C 76.285156 31.867188 78.113281 32.144531 81.222656 32.144531 C 89.839844 32.144531 91.261719 28.515625 91.261719 23.546875 L 91.261719 18.417969 C 91.261719 13.878906 90.210938 11.050781 83.898438 11.050781 Z M 84.949219 23.589844 C 84.949219 25.5625 84.527344 26.976562 81.4375 26.976562 C 80.578125 26.976562 80.066406 26.976562 79.164062 26.886719 L 79.164062 17.167969 C 80.105469 16.742188 81.03125 16.320312 82.320312 16.320312 C 84.46875 16.320312 84.949219 17.488281 84.949219 18.945312 Z M 122.523438 11.066406 C 115.101562 11.066406 113.296875 15.226562 113.296875 19.515625 L 113.296875 23.65625 C 113.296875 27.941406 115.101562 32.101562 122.523438 32.101562 C 129.9375 32.101562 131.710938 27.941406 131.710938 23.65625 L 131.710938 19.515625 C 131.710938 15.226562 129.9375 11.066406 122.523438 11.066406 Z M 125.402344 24.265625 C 125.402344 25.726562 124.644531 26.898438 122.503906 26.898438 C 120.359375 26.898438 119.613281 25.726562 119.613281 24.265625 L 119.613281 18.945312 C 119.613281 17.488281 120.359375 16.320312 122.503906 16.320312 C 124.644531 16.320312 125.402344 17.488281 125.402344 18.945312 Z M 61.796875 11.050781 C 54.851562 11.050781 52.847656 14.738281 52.847656 19.238281 L 52.847656 23.449219 C 52.847656 28.59375 55.542969 32.152344 62.324219 32.152344 C 65.417969 32.152344 67.058594 31.984375 70.210938 31.339844 L 70.210938 26.210938 C 66.941406 26.773438 65.390625 26.898438 62.847656 26.898438 C 60.015625 26.898438 59.160156 26.273438 59.160156 23.875 L 59.160156 23.449219 L 70.738281 23.449219 L 70.738281 19.238281 C 70.738281 14.695312 68.742188 11.050781 61.796875 11.050781 Z M 64.425781 19.238281 L 59.160156 19.238281 L 59.160156 18.417969 C 59.160156 16.964844 59.652344 15.789062 61.796875 15.789062 C 63.9375 15.789062 64.425781 16.964844 64.425781 18.417969 Z M 64.425781 19.238281 " fill-opacity="1" fill-rule="evenodd"/></svg>