<svg xmlns="http://www.w3.org/2000/svg" xmlns:xlink="http://www.w3.org/1999/xlink" width="180" zoomAndPan="magnify" viewBox="0 0 135 38.249999" height="51" preserveAspectRatio="xMidYMid meet" version="1.0"><defs><clipPath id="508476264f"><path d="M 1.296875 0 L 133.699219 0 L 133.699219 37.515625 L 1.296875 37.515625 Z M 1.296875 0 " clip-rule="nonzero"/></clipPath></defs><g clip-path="url(#508476264f)"><path fill="#050a30" d="M 8.390625 0.132812 C 5.695312 1.261719 2.730469 4.457031 1.792969 8.46875 C 0.605469 13.554688 5.542969 15.703125 5.945312 15 C 6.421875 14.171875 5.0625 13.890625 4.78125 11.253906 C 4.421875 7.847656 6 4.039062 7.988281 2.371094 C 8.359375 2.058594 8.339844 2.492188 8.339844 3.289062 C 8.339844 4.71875 8.261719 17.542969 8.261719 20.21875 C 8.261719 23.839844 8.113281 24.984375 7.84375 26.113281 C 7.574219 27.257812 7.136719 28.03125 7.46875 28.332031 C 7.835938 28.664062 9.417969 27.871094 10.328125 26.59375 C 11.425781 25.058594 11.808594 23.21875 11.878906 21.21875 C 11.960938 18.8125 11.957031 14.988281 11.960938 12.804688 C 11.964844 10.804688 11.996094 4.949219 11.925781 1.425781 C 11.910156 0.5625 9.519531 -0.34375 8.390625 0.128906 Z M 104.164062 17.078125 C 104.078125 18.960938 103.660156 20.433594 103.144531 21.472656 C 102.144531 23.480469 100.074219 24.105469 99.191406 21.214844 C 98.710938 19.640625 98.691406 17.011719 99.035156 14.8125 C 99.386719 12.574219 100.367188 10.886719 101.988281 11.039062 C 103.589844 11.1875 104.339844 13.257812 104.164062 17.078125 Z M 77.171875 28.757812 C 77.148438 31.886719 76.65625 34.628906 75.605469 35.425781 C 74.109375 36.554688 72.101562 35.710938 72.519531 33.425781 C 72.886719 31.40625 74.625 29.34375 77.175781 26.824219 C 77.175781 26.824219 77.179688 27.398438 77.171875 28.757812 Z M 76.761719 17.0625 C 76.671875 18.777344 76.226562 20.5 75.746094 21.472656 C 74.746094 23.480469 72.65625 24.109375 71.792969 21.214844 C 71.199219 19.238281 71.339844 16.679688 71.632812 15.070312 C 72.015625 12.976562 72.933594 11.039062 74.589844 11.039062 C 76.195312 11.039062 76.988281 12.804688 76.761719 17.0625 Z M 61.125 17.035156 C 61.027344 18.851562 60.675781 20.367188 60.105469 21.472656 C 59.082031 23.46875 57.050781 24.101562 56.15625 21.214844 C 55.507812 19.136719 55.730469 16.300781 55.996094 14.769531 C 56.394531 12.496094 57.394531 10.886719 58.953125 11.039062 C 60.550781 11.195312 61.332031 13.257812 61.125 17.035156 Z M 132.785156 19.15625 C 132.394531 19.15625 132.214844 19.558594 132.070312 20.242188 C 131.558594 22.605469 131.019531 23.140625 130.324219 23.140625 C 129.546875 23.140625 128.851562 21.96875 128.671875 19.625 C 128.53125 17.78125 128.554688 14.386719 128.734375 11.011719 C 128.769531 10.316406 128.578125 9.628906 126.722656 8.953125 C 125.925781 8.664062 124.761719 8.234375 124.183594 9.632812 C 122.550781 13.585938 121.910156 16.722656 121.761719 17.996094 C 121.753906 18.0625 121.671875 18.078125 121.660156 17.921875 C 121.5625 16.902344 121.347656 15.046875 121.320312 11.148438 C 121.316406 10.390625 121.15625 9.742188 120.316406 9.210938 C 119.773438 8.867188 118.125 8.261719 117.53125 8.984375 C 117.015625 9.574219 116.417969 11.167969 115.800781 13.054688 C 115.296875 14.589844 114.945312 15.628906 114.945312 15.628906 C 114.945312 15.628906 114.953125 11.488281 114.957031 9.917969 C 114.960938 9.324219 114.554688 9.128906 114.433594 9.09375 C 113.882812 8.933594 112.800781 8.664062 112.339844 8.664062 C 111.769531 8.664062 111.632812 8.984375 111.632812 9.445312 C 111.632812 9.507812 111.542969 14.894531 111.542969 18.664062 C 111.542969 18.828125 111.542969 19.007812 111.542969 19.195312 C 111.230469 20.929688 110.210938 23.28125 109.105469 23.28125 C 107.996094 23.28125 107.472656 22.296875 107.472656 17.804688 C 107.472656 15.183594 107.550781 14.042969 107.589844 12.148438 C 107.609375 11.054688 107.65625 10.21875 107.652344 10.027344 C 107.644531 9.445312 106.636719 9.152344 106.167969 9.042969 C 105.699219 8.933594 105.289062 8.890625 104.96875 8.90625 C 104.519531 8.933594 104.199219 9.230469 104.199219 9.640625 C 104.199219 9.859375 104.199219 10.273438 104.199219 10.273438 C 103.617188 9.359375 102.683594 8.71875 102.058594 8.535156 C 100.378906 8.035156 98.628906 8.480469 97.308594 10.332031 C 96.257812 11.800781 95.625 13.46875 95.375 15.863281 C 95.195312 17.613281 95.253906 19.390625 95.578125 20.890625 C 95.1875 22.585938 94.460938 23.28125 93.664062 23.28125 C 92.511719 23.28125 91.675781 21.390625 91.773438 18.128906 C 91.835938 15.980469 92.265625 14.472656 92.734375 12.292969 C 92.933594 11.363281 92.769531 10.878906 92.363281 10.410156 C 91.992188 9.984375 91.195312 9.765625 90.050781 10.035156 C 89.234375 10.226562 88.070312 10.429688 87.003906 10.589844 C 87.003906 10.589844 87.070312 10.332031 87.121094 9.878906 C 87.398438 7.5 84.820312 7.695312 84 8.453125 C 83.507812 8.90625 83.171875 9.441406 83.046875 10.402344 C 82.84375 11.929688 84.085938 12.648438 84.085938 12.648438 C 83.679688 14.519531 82.679688 16.960938 81.648438 18.726562 C 81.097656 19.671875 80.675781 20.371094 80.128906 21.117188 C 80.125 20.839844 80.125 20.5625 80.125 20.285156 C 80.113281 16.355469 80.164062 13.261719 80.1875 12.148438 C 80.210938 11.058594 80.253906 10.242188 80.25 10.050781 C 80.246094 9.625 79.996094 9.460938 79.480469 9.257812 C 79.019531 9.078125 78.480469 8.953125 77.921875 8.910156 C 77.210938 8.855469 76.785156 9.230469 76.796875 9.675781 C 76.796875 9.757812 76.796875 10.277344 76.796875 10.277344 C 76.214844 9.359375 75.28125 8.71875 74.65625 8.535156 C 72.980469 8.035156 71.226562 8.480469 69.90625 10.332031 C 68.859375 11.800781 68.171875 13.867188 67.976562 15.84375 C 67.792969 17.6875 67.828125 19.257812 68.074219 20.574219 C 67.808594 21.898438 67.039062 23.28125 66.171875 23.28125 C 65.0625 23.28125 64.433594 22.296875 64.433594 17.804688 C 64.433594 15.183594 64.511719 14.042969 64.550781 12.148438 C 64.574219 11.058594 64.617188 10.21875 64.613281 10.027344 C 64.605469 9.445312 63.597656 9.152344 63.128906 9.042969 C 62.640625 8.929688 62.21875 8.886719 61.890625 8.910156 C 61.464844 8.941406 61.160156 9.328125 61.160156 9.613281 L 61.160156 10.277344 C 60.578125 9.359375 59.644531 8.71875 59.019531 8.535156 C 57.34375 8.035156 55.601562 8.484375 54.269531 10.332031 C 53.402344 11.535156 52.699219 12.867188 52.339844 15.820312 C 52.234375 16.671875 52.1875 17.472656 52.195312 18.21875 C 51.847656 20.339844 50.320312 22.78125 49.070312 22.78125 C 48.339844 22.78125 47.640625 21.359375 47.640625 18.332031 C 47.640625 14.292969 47.890625 8.546875 47.933594 7.992188 C 47.933594 7.992188 49.511719 7.964844 49.816406 7.964844 C 50.605469 7.953125 51.320312 7.972656 52.367188 7.917969 C 52.894531 7.890625 53.402344 6 52.859375 5.765625 C 52.613281 5.660156 50.871094 5.566406 50.183594 5.550781 C 49.601562 5.539062 47.988281 5.417969 47.988281 5.417969 C 47.988281 5.417969 48.132812 1.605469 48.167969 1.203125 C 48.195312 0.867188 47.761719 0.691406 47.511719 0.585938 C 46.910156 0.332031 46.367188 0.207031 45.726562 0.078125 C 44.839844 -0.105469 44.4375 0.0703125 44.359375 0.820312 C 44.242188 1.957031 44.179688 5.289062 44.179688 5.289062 C 43.53125 5.289062 41.308594 5.160156 40.660156 5.160156 C 40.054688 5.160156 39.402344 7.765625 40.238281 7.796875 C 41.199219 7.835938 42.875 7.867188 43.984375 7.902344 C 43.984375 7.902344 43.933594 13.742188 43.933594 15.546875 C 43.933594 15.738281 43.9375 15.921875 43.9375 16.101562 C 43.328125 19.292969 41.175781 21.015625 41.175781 21.015625 C 41.636719 18.90625 40.691406 17.320312 38.992188 15.976562 C 38.363281 15.484375 37.128906 14.546875 35.742188 13.519531 C 35.742188 13.519531 36.546875 12.730469 37.257812 11.136719 C 37.761719 10.007812 37.78125 8.71875 36.546875 8.433594 C 34.503906 7.960938 32.816406 9.464844 32.316406 11.070312 C 31.925781 12.3125 32.132812 13.234375 32.898438 14.195312 C 32.953125 14.265625 33.011719 14.335938 33.074219 14.40625 C 32.613281 15.296875 31.980469 16.496094 31.445312 17.429688 C 29.953125 20.007812 28.828125 22.050781 27.980469 22.050781 C 27.300781 22.050781 27.308594 19.976562 27.308594 18.039062 C 27.308594 16.363281 27.433594 13.847656 27.53125 11.242188 C 27.5625 10.382812 27.132812 9.890625 26.414062 9.445312 C 25.976562 9.175781 25.039062 8.644531 24.5 8.644531 C 23.691406 8.644531 21.351562 8.753906 19.144531 15.15625 C 18.867188 15.964844 18.320312 17.433594 18.320312 17.433594 L 18.367188 9.734375 C 18.367188 9.554688 18.269531 9.382812 18.050781 9.261719 C 17.679688 9.058594 16.683594 8.644531 15.800781 8.644531 C 15.378906 8.644531 15.171875 8.839844 15.171875 9.234375 L 15.09375 21.273438 C 15.09375 22.191406 15.117188 23.257812 15.207031 23.722656 C 15.296875 24.191406 15.441406 24.574219 15.625 24.796875 C 15.804688 25.023438 16.011719 25.195312 16.355469 25.269531 C 16.675781 25.332031 18.425781 25.558594 18.519531 24.886719 C 18.628906 24.085938 18.632812 23.214844 19.550781 19.972656 C 20.984375 14.921875 22.851562 12.460938 23.726562 11.585938 C 23.882812 11.433594 24.054688 11.421875 24.046875 11.671875 C 24.011719 12.78125 23.878906 15.546875 23.789062 17.894531 C 23.550781 24.183594 24.695312 25.351562 26.324219 25.351562 C 27.574219 25.351562 29.332031 24.105469 31.21875 20.960938 C 32.394531 19 33.535156 17.078125 34.355469 15.695312 C 34.925781 16.222656 35.570312 16.792969 36.210938 17.402344 C 37.699219 18.820312 38.1875 20.167969 37.863281 21.445312 C 37.617188 22.421875 36.679688 23.425781 35.019531 22.449219 C 34.53125 22.164062 34.324219 21.941406 33.839844 21.621094 C 33.578125 21.449219 33.175781 21.398438 32.9375 21.578125 C 32.3125 22.046875 31.957031 22.648438 31.753906 23.386719 C 31.554688 24.109375 32.277344 24.488281 33.023438 24.824219 C 33.667969 25.109375 35.050781 25.371094 35.929688 25.398438 C 39.367188 25.515625 42.117188 23.738281 44.035156 19.152344 C 44.378906 23.113281 45.835938 25.351562 48.371094 25.351562 C 50.066406 25.351562 51.765625 23.15625 52.511719 20.996094 C 52.722656 21.878906 53.039062 22.644531 53.449219 23.292969 C 55.402344 26.394531 59.191406 25.726562 61.09375 23.089844 C 61.683594 22.277344 61.773438 21.984375 61.773438 21.984375 C 62.050781 24.472656 64.050781 25.339844 65.195312 25.339844 C 66.476562 25.339844 67.800781 24.734375 68.726562 22.640625 C 68.835938 22.867188 68.953125 23.085938 69.085938 23.289062 C 71.039062 26.394531 74.828125 25.726562 76.730469 23.089844 C 76.820312 22.96875 76.898438 22.855469 76.96875 22.753906 L 77.023438 24.390625 C 77.023438 24.390625 75.9375 25.386719 75.269531 26 C 72.335938 28.699219 70.105469 30.746094 69.941406 33.128906 C 69.730469 36.167969 72.191406 37.296875 74.050781 37.445312 C 76.027344 37.601562 77.71875 36.507812 78.761719 34.976562 C 79.675781 33.628906 80.273438 30.730469 80.230469 27.863281 C 80.210938 26.71875 80.183594 25.257812 80.160156 23.695312 C 81.191406 22.496094 82.355469 20.976562 83.425781 19.203125 C 84.589844 17.269531 85.839844 14.667969 86.480469 12.648438 C 86.480469 12.648438 87.566406 12.65625 88.722656 12.578125 C 89.09375 12.554688 89.199219 12.632812 89.132812 12.902344 C 89.050781 13.234375 87.667969 18.570312 88.929688 22.128906 C 89.792969 24.5625 91.738281 25.34375 92.890625 25.34375 C 94.238281 25.34375 95.53125 24.324219 96.222656 22.804688 C 96.308594 22.976562 96.394531 23.140625 96.488281 23.289062 C 98.441406 26.390625 102.21875 25.722656 104.136719 23.089844 C 104.570312 22.496094 104.816406 21.984375 104.816406 21.984375 C 105.226562 24.558594 107.222656 25.355469 108.367188 25.355469 C 109.558594 25.355469 110.691406 24.863281 111.609375 22.6875 C 111.648438 23.644531 111.707031 24.429688 111.804688 24.675781 C 111.863281 24.828125 112.199219 25.015625 112.445312 25.109375 C 113.539062 25.515625 114.648438 25.324219 115.0625 25.238281 C 115.34375 25.179688 115.566406 24.953125 115.597656 24.359375 C 115.679688 22.808594 115.628906 20.195312 116.097656 18.257812 C 116.886719 15 117.625 13.738281 117.972656 13.113281 C 118.167969 12.761719 118.390625 12.703125 118.398438 13.074219 C 118.414062 13.824219 118.449219 16.027344 118.757812 18.988281 C 118.980469 21.164062 119.28125 22.453125 119.511719 22.859375 C 120.167969 24.023438 120.980469 24.078125 121.640625 24.078125 C 122.0625 24.078125 122.945312 23.960938 122.863281 23.21875 C 122.824219 22.859375 122.894531 20.628906 123.671875 17.417969 C 124.179688 15.324219 125.027344 13.433594 125.332031 12.742188 C 125.445312 12.484375 125.496094 12.6875 125.496094 12.726562 C 125.429688 14.167969 125.285156 18.886719 125.871094 21.46875 C 126.667969 24.960938 128.964844 25.355469 129.769531 25.355469 C 131.480469 25.355469 132.878906 24.050781 133.347656 20.617188 C 133.460938 19.792969 133.292969 19.15625 132.789062 19.15625 " fill-opacity="1" fill-rule="nonzero"/></g></svg>