<svg xmlns="http://www.w3.org/2000/svg" xmlns:xlink="http://www.w3.org/1999/xlink" width="189" zoomAndPan="magnify" viewBox="0 0 141.75 30.000001" height="40" preserveAspectRatio="xMidYMid meet" version="1.0"><defs><clipPath id="1975634acb"><path d="M 43 3.636719 L 139.34375 3.636719 L 139.34375 23 L 43 23 Z M 43 3.636719 " clip-rule="nonzero"/></clipPath><clipPath id="f04247aee9"><path d="M 2.164062 3.636719 L 30 3.636719 L 30 25.449219 L 2.164062 25.449219 Z M 2.164062 3.636719 " clip-rule="nonzero"/></clipPath></defs><g clip-path="url(#1975634acb)"><path fill="#050a30" d="M 48.476562 22.667969 C 46.601562 22.164062 44.882812 20.742188 44.003906 18.96875 C 43.332031 17.609375 43.332031 17.617188 43.332031 11.371094 C 43.25 5.964844 43.28125 5.789062 43.640625 5.269531 C 44.40625 3.992188 46.09375 3.71875 47.199219 4.695312 C 47.976562 5.378906 48.039062 5.609375 48.039062 7.847656 L 48.039062 9.789062 L 51.304688 9.789062 C 53.300781 9.789062 54.757812 9.828125 55.054688 9.890625 C 56.757812 10.257812 57.40625 12.292969 56.222656 13.570312 C 56.082031 13.71875 55.796875 13.9375 55.585938 14.050781 C 55.214844 14.25 55.078125 14.257812 51.621094 14.285156 L 48.039062 14.316406 L 48.039062 15.179688 C 48.039062 16.441406 48.167969 16.851562 48.753906 17.4375 C 49.4375 18.117188 49.617188 18.148438 52.816406 18.152344 C 55.296875 18.15625 55.519531 18.167969 55.921875 18.351562 C 57.445312 19.039062 57.824219 20.875 56.699219 22.121094 C 56.042969 22.851562 56 22.855469 52.363281 22.851562 C 49.527344 22.851562 49.066406 22.828125 48.476562 22.667969 Z M 63.007812 22.710938 C 61.53125 22.351562 60.003906 21.230469 59.070312 19.8125 C 58.210938 18.503906 58.042969 17.585938 58.039062 14.15625 C 58.035156 11.195312 58.09375 10.820312 58.664062 10.234375 C 59.191406 9.691406 59.527344 9.550781 60.304688 9.550781 C 60.894531 9.546875 61.042969 9.585938 61.453125 9.839844 C 61.746094 10.019531 62.035156 10.308594 62.214844 10.597656 C 62.574219 11.222656 62.511719 11.488281 62.554688 14.058594 C 62.601562 16.984375 62.605469 17.050781 62.828125 17.40625 C 63.574219 18.605469 65.113281 18.785156 66.136719 17.785156 C 66.726562 17.210938 66.785156 16.875 66.785156 13.851562 C 66.785156 11.367188 66.796875 11.199219 66.988281 10.816406 C 67.371094 10.050781 67.929688 9.644531 68.753906 9.53125 C 69.632812 9.410156 70.585938 9.929688 71.039062 10.78125 C 71.242188 11.164062 71.257812 11.320312 71.300781 14.121094 C 71.285156 16.453125 71.394531 17.132812 71.613281 17.460938 C 72.320312 18.523438 73.796875 18.75 74.71875 17.941406 C 75.382812 17.359375 75.382812 17.359375 75.4375 14.113281 C 75.484375 11.324219 75.496094 11.160156 75.695312 10.78125 C 76.542969 9.195312 78.683594 9.09375 79.613281 10.601562 C 80.214844 11.433594 79.953125 13.199219 79.953125 14.339844 C 79.996094 15.839844 79.910156 17.761719 79.648438 18.351562 C 78.933594 20.363281 77.34375 21.960938 75.433594 22.589844 C 74.570312 22.875 72.660156 22.945312 71.796875 22.722656 C 70.96875 22.503906 70.25 22.175781 69.566406 21.695312 L 68.996094 21.292969 L 68.421875 21.695312 C 67.726562 22.183594 67.027344 22.511719 66.257812 22.710938 C 65.542969 22.898438 63.777344 22.898438 63.007812 22.710938 Z M 82.972656 22.722656 C 82.535156 22.535156 81.988281 22.019531 81.75 21.570312 C 81.542969 21.183594 81.539062 21.136719 81.539062 16.226562 C 81.539062 11.503906 81.546875 11.261719 81.726562 10.898438 C 82.476562 9.386719 84.410156 9.046875 85.582031 10.21875 C 86.308594 10.949219 86.308594 10.929688 86.277344 16.382812 C 86.25 21.089844 86.246094 21.1875 86.042969 21.5625 C 85.773438 22.058594 85.285156 22.523438 84.835938 22.710938 C 84.398438 22.894531 83.378906 22.902344 82.972656 22.722656 Z M 93.0625 22.671875 C 90.925781 22.109375 89.0625 20.421875 88.277344 18.332031 C 87.855469 17.203125 87.820312 16.625 87.851562 11.039062 C 87.882812 5.882812 87.886719 5.792969 88.089844 5.414062 C 89.109375 3.527344 91.894531 3.765625 92.5 5.792969 C 92.601562 6.132812 92.640625 6.753906 92.640625 8.019531 L 92.640625 9.769531 L 94.925781 9.804688 C 97.035156 9.835938 97.238281 9.855469 97.59375 10.046875 C 99.261719 10.9375 99.269531 13.15625 97.605469 14.042969 C 97.234375 14.242188 97.066406 14.257812 94.917969 14.289062 L 92.625 14.320312 L 92.65625 15.441406 C 92.695312 16.75 92.84375 17.144531 93.492188 17.640625 C 94.0625 18.078125 94.421875 18.148438 96.054688 18.152344 C 97.363281 18.152344 97.539062 18.171875 97.980469 18.378906 C 99.828125 19.238281 99.828125 21.839844 97.980469 22.679688 C 97.40625 22.941406 94.0625 22.933594 93.0625 22.671875 Z M 105.300781 22.675781 C 102.878906 22.011719 100.890625 19.980469 100.265625 17.523438 C 100.109375 16.917969 100.09375 16.308594 100.09375 11.375 C 100.128906 6.25 99.875 6.449219 100.355469 5.394531 C 100.90625 4.347656 102.046875 3.886719 103.253906 4.222656 C 103.757812 4.359375 104.605469 5.207031 104.746094 5.710938 C 104.804688 5.921875 104.847656 6.90625 104.847656 7.9375 L 104.851562 9.789062 L 106.808594 9.789062 C 109.050781 9.789062 109.644531 9.871094 110.183594 10.257812 C 111.355469 11.097656 111.382812 12.980469 110.234375 13.8125 C 109.664062 14.226562 109.121094 14.304688 106.863281 14.304688 L 104.851562 14.304688 L 104.851562 15.175781 C 104.851562 16.324219 104.980469 16.804688 105.4375 17.320312 C 106.054688 18.023438 106.285156 18.089844 108.269531 18.148438 C 110 18.199219 110.011719 18.199219 110.480469 18.492188 C 111.019531 18.824219 111.519531 19.558594 111.613281 20.164062 C 111.753906 21.039062 111.296875 22.023438 110.503906 22.546875 L 110.101562 22.8125 L 108.03125 22.832031 C 106.257812 22.851562 105.859375 22.828125 105.300781 22.675781 Z M 117.296875 22.71875 C 115.894531 22.339844 114.859375 21.714844 113.84375 20.636719 C 112.613281 19.328125 112.058594 17.886719 112.0625 16.003906 C 112.0625 14.855469 112.261719 13.957031 112.71875 13.007812 C 113.203125 12.003906 113.730469 11.347656 114.511719 10.792969 C 116.785156 9.167969 120.832031 9.066406 123.375 10.570312 C 124.289062 11.105469 125.234375 12.125 125.699219 13.0625 C 126.632812 14.957031 126.539062 16.671875 125.46875 17.230469 C 125.101562 17.421875 124.925781 17.429688 121.023438 17.457031 L 116.960938 17.484375 L 116.960938 17.734375 C 116.960938 18.128906 117.589844 18.660156 118.277344 18.855469 C 118.746094 18.988281 119.3125 19.015625 121.4375 19.015625 C 122.875 19.015625 124.183594 19.058594 124.375 19.113281 C 126.03125 19.574219 126.359375 21.765625 124.90625 22.617188 C 124.433594 22.9375 124.148438 22.855469 121.136719 22.855469 C 118.636719 22.851562 117.65625 22.816406 117.296875 22.71875 Z M 121.523438 14.183594 C 121.34375 13.578125 120.824219 13.21875 119.875 13.042969 C 118.867188 12.859375 117.457031 13.273438 117.183594 13.839844 C 117.0625 14.089844 116.949219 14.375 116.949219 14.375 C 116.949219 14.375 117.789062 14.402344 119.277344 14.402344 L 121.589844 14.402344 Z M 128.777344 22.675781 C 128.28125 22.40625 127.753906 21.78125 127.628906 21.316406 C 127.554688 21.042969 127.535156 19.976562 127.558594 18.015625 C 127.59375 15.164062 127.597656 15.109375 127.855469 14.332031 C 128.539062 12.285156 130.363281 10.585938 132.484375 10.019531 C 133.265625 9.8125 136.871094 9.714844 137.65625 9.878906 C 138.746094 10.105469 139.457031 10.949219 139.457031 12.015625 C 139.457031 12.929688 139.042969 13.632812 138.265625 14.042969 C 137.902344 14.234375 137.691406 14.257812 135.609375 14.304688 C 133.453125 14.351562 133.335938 14.363281 132.988281 14.578125 C 132.53125 14.863281 132.199219 15.300781 132.0625 15.796875 C 132 16.027344 131.957031 17.171875 131.957031 18.683594 C 131.957031 21.1875 131.957031 21.1875 131.707031 21.691406 C 131.539062 22.027344 131.3125 22.292969 131.011719 22.5 C 130.617188 22.773438 130.476562 22.8125 129.84375 22.835938 C 129.277344 22.855469 129.046875 22.824219 128.777344 22.675781 Z M 82.855469 8.097656 C 81.328125 7.335938 81.054688 5.328125 82.320312 4.214844 C 82.8125 3.78125 83.210938 3.636719 83.894531 3.636719 C 84.851562 3.636719 85.59375 4.082031 86.023438 4.914062 C 87.050781 6.910156 84.867188 9.097656 82.855469 8.097656 Z M 82.855469 8.097656 " fill-opacity="1" fill-rule="nonzero"/></g><g clip-path="url(#f04247aee9)"><path fill="#050a30" d="M 10.992188 25.449219 C 21.171875 25.449219 26.722656 17.039062 26.722656 9.792969 C 26.722656 9.546875 26.722656 9.300781 26.722656 9.089844 C 27.816406 8.316406 28.738281 7.328125 29.480469 6.238281 C 28.488281 6.660156 27.429688 6.976562 26.296875 7.117188 C 27.429688 6.449219 28.3125 5.359375 28.738281 4.058594 C 27.675781 4.691406 26.472656 5.148438 25.238281 5.394531 C 24.210938 4.304688 22.796875 3.636719 21.207031 3.636719 C 18.132812 3.636719 15.65625 6.097656 15.65625 9.160156 C 15.65625 9.582031 15.691406 10.003906 15.796875 10.425781 C 11.203125 10.179688 7.136719 7.996094 4.378906 4.65625 C 3.921875 5.464844 3.636719 6.414062 3.636719 7.398438 C 3.636719 9.300781 4.628906 10.988281 6.113281 11.972656 C 5.191406 11.9375 4.34375 11.691406 3.601562 11.269531 C 3.601562 11.304688 3.601562 11.304688 3.601562 11.339844 C 3.601562 14.015625 5.511719 16.230469 8.058594 16.722656 C 7.597656 16.863281 7.101562 16.933594 6.605469 16.933594 C 6.253906 16.933594 5.898438 16.898438 5.582031 16.828125 C 6.289062 19.011719 8.339844 20.59375 10.742188 20.664062 C 8.835938 22.140625 6.464844 23.019531 3.886719 23.019531 C 3.425781 23.019531 3 22.984375 2.578125 22.949219 C 4.980469 24.535156 7.878906 25.449219 10.992188 25.449219 Z M 10.992188 25.449219 " fill-opacity="1" fill-rule="nonzero"/></g></svg>