<svg xmlns="http://www.w3.org/2000/svg" xmlns:xlink="http://www.w3.org/1999/xlink" width="202" zoomAndPan="magnify" viewBox="0 0 151.5 33.749998" height="45" preserveAspectRatio="xMidYMid meet" version="1.0"><defs><clipPath id="d8d676eb8b"><path d="M 0.308594 0 L 49 0 L 49 33.5 L 0.308594 33.5 Z M 0.308594 0 " clip-rule="nonzero"/></clipPath><clipPath id="a48a6c6973"><path d="M 138 9 L 150.695312 9 L 150.695312 32 L 138 32 Z M 138 9 " clip-rule="nonzero"/></clipPath></defs><g clip-path="url(#d8d676eb8b)"><path fill="#050a30" d="M 47.328125 5.257812 C 46.773438 3.203125 45.152344 1.582031 43.09375 1.027344 C 39.339844 0 24.3125 0 24.3125 0 C 24.3125 0 9.285156 0 5.527344 0.988281 C 3.511719 1.542969 1.851562 3.203125 1.296875 5.257812 C 0.308594 9.015625 0.308594 16.804688 0.308594 16.804688 C 0.308594 16.804688 0.308594 24.636719 1.296875 28.351562 C 1.851562 30.410156 3.472656 32.03125 5.527344 32.585938 C 9.324219 33.613281 24.3125 33.613281 24.3125 33.613281 C 24.3125 33.613281 39.339844 33.613281 43.09375 32.625 C 45.152344 32.070312 46.773438 30.449219 47.328125 28.394531 C 48.316406 24.636719 48.316406 16.847656 48.316406 16.847656 C 48.316406 16.847656 48.355469 9.015625 47.328125 5.257812 Z M 47.328125 5.257812 " fill-opacity="1" fill-rule="nonzero"/></g><path fill="#ffffff" d="M 19.527344 9.609375 L 19.527344 24.003906 L 32.023438 16.804688 Z M 19.527344 9.609375 " fill-opacity="1" fill-rule="nonzero"/><path fill="#050a30" d="M 70.023438 30.605469 C 69.074219 29.972656 68.402344 28.984375 68.007812 27.601562 C 67.613281 26.257812 67.414062 24.4375 67.414062 22.222656 L 67.414062 19.179688 C 67.414062 16.925781 67.652344 15.105469 68.085938 13.722656 C 68.5625 12.335938 69.273438 11.347656 70.222656 10.714844 C 71.210938 10.082031 72.476562 9.765625 74.058594 9.765625 C 75.601562 9.765625 76.867188 10.082031 77.816406 10.714844 C 78.765625 11.347656 79.4375 12.378906 79.871094 13.722656 C 80.304688 15.066406 80.542969 16.886719 80.542969 19.179688 L 80.542969 22.222656 C 80.542969 24.476562 80.347656 26.257812 79.910156 27.640625 C 79.476562 28.984375 78.804688 30.015625 77.855469 30.648438 C 76.90625 31.28125 75.601562 31.597656 73.980469 31.597656 C 72.320312 31.554688 70.972656 31.238281 70.023438 30.605469 Z M 75.363281 27.285156 C 75.640625 26.613281 75.757812 25.464844 75.757812 23.925781 L 75.757812 17.359375 C 75.757812 15.855469 75.640625 14.75 75.363281 14.039062 C 75.085938 13.328125 74.652344 13.011719 73.980469 13.011719 C 73.347656 13.011719 72.871094 13.367188 72.636719 14.039062 C 72.359375 14.75 72.238281 15.855469 72.238281 17.359375 L 72.238281 23.925781 C 72.238281 25.464844 72.359375 26.613281 72.636719 27.285156 C 72.871094 27.957031 73.347656 28.3125 74.019531 28.3125 C 74.652344 28.3125 75.085938 27.996094 75.363281 27.285156 Z M 75.363281 27.285156 " fill-opacity="1" fill-rule="nonzero"/><g clip-path="url(#a48a6c6973)"><path fill="#050a30" d="M 143.023438 22.261719 L 143.023438 23.332031 C 143.023438 24.675781 143.0625 25.703125 143.140625 26.375 C 143.21875 27.046875 143.378906 27.5625 143.65625 27.839844 C 143.894531 28.15625 144.289062 28.3125 144.84375 28.3125 C 145.554688 28.3125 146.027344 28.035156 146.304688 27.484375 C 146.582031 26.929688 146.699219 26.019531 146.738281 24.714844 L 150.8125 24.953125 C 150.851562 25.148438 150.851562 25.386719 150.851562 25.703125 C 150.851562 27.640625 150.339844 29.105469 149.269531 30.054688 C 148.203125 31.003906 146.699219 31.476562 144.761719 31.476562 C 142.429688 31.476562 140.808594 30.726562 139.859375 29.261719 C 138.910156 27.800781 138.4375 25.546875 138.4375 22.460938 L 138.4375 18.785156 C 138.4375 15.621094 138.910156 13.328125 139.898438 11.863281 C 140.886719 10.398438 142.546875 9.6875 144.882812 9.6875 C 146.503906 9.6875 147.769531 10.003906 148.636719 10.597656 C 149.507812 11.191406 150.101562 12.140625 150.457031 13.367188 C 150.8125 14.632812 150.972656 16.371094 150.972656 18.585938 L 150.972656 22.183594 L 143.023438 22.183594 Z M 143.617188 13.40625 C 143.378906 13.722656 143.21875 14.195312 143.140625 14.867188 C 143.0625 15.539062 143.023438 16.570312 143.023438 17.953125 L 143.023438 19.457031 L 146.503906 19.457031 L 146.503906 17.953125 C 146.503906 16.609375 146.464844 15.582031 146.382812 14.867188 C 146.304688 14.15625 146.109375 13.683594 145.871094 13.40625 C 145.632812 13.128906 145.238281 12.96875 144.761719 12.96875 C 144.210938 12.929688 143.851562 13.089844 143.617188 13.40625 Z M 143.617188 13.40625 " fill-opacity="1" fill-rule="nonzero"/></g><path fill="#050a30" d="M 58.476562 21.867188 L 53.101562 2.371094 L 57.804688 2.371094 L 59.703125 11.191406 C 60.179688 13.367188 60.535156 15.222656 60.773438 16.765625 L 60.890625 16.765625 C 61.046875 15.660156 61.40625 13.839844 61.957031 11.230469 L 63.933594 2.371094 L 68.640625 2.371094 L 63.183594 21.867188 L 63.183594 31.199219 L 58.519531 31.199219 L 58.519531 21.867188 Z M 58.476562 21.867188 " fill-opacity="1" fill-rule="nonzero"/><path fill="#050a30" d="M 95.847656 10.164062 L 95.847656 31.238281 L 92.128906 31.238281 L 91.734375 28.667969 L 91.617188 28.667969 C 90.628906 30.605469 89.085938 31.597656 87.070312 31.597656 C 85.683594 31.597656 84.65625 31.121094 83.984375 30.210938 C 83.3125 29.300781 82.996094 27.878906 82.996094 25.902344 L 82.996094 10.164062 L 87.742188 10.164062 L 87.742188 25.625 C 87.742188 26.574219 87.859375 27.246094 88.058594 27.640625 C 88.253906 28.035156 88.609375 28.234375 89.085938 28.234375 C 89.480469 28.234375 89.875 28.117188 90.273438 27.839844 C 90.667969 27.601562 90.945312 27.285156 91.101562 26.890625 L 91.101562 10.164062 Z M 95.847656 10.164062 " fill-opacity="1" fill-rule="nonzero"/><path fill="#050a30" d="M 120.167969 10.164062 L 120.167969 31.238281 L 116.449219 31.238281 L 116.054688 28.667969 L 115.933594 28.667969 C 114.945312 30.605469 113.40625 31.597656 111.386719 31.597656 C 110.003906 31.597656 108.976562 31.121094 108.304688 30.210938 C 107.632812 29.300781 107.316406 27.878906 107.316406 25.902344 L 107.316406 10.164062 L 112.058594 10.164062 L 112.058594 25.625 C 112.058594 26.574219 112.179688 27.246094 112.375 27.640625 C 112.574219 28.035156 112.929688 28.234375 113.40625 28.234375 C 113.800781 28.234375 114.195312 28.117188 114.589844 27.839844 C 114.984375 27.601562 115.261719 27.285156 115.421875 26.890625 L 115.421875 10.164062 Z M 120.167969 10.164062 " fill-opacity="1" fill-rule="nonzero"/><path fill="#050a30" d="M 108.738281 6.207031 L 104.03125 6.207031 L 104.03125 31.199219 L 99.40625 31.199219 L 99.40625 6.207031 L 94.699219 6.207031 L 94.699219 2.371094 L 108.738281 2.371094 Z M 108.738281 6.207031 " fill-opacity="1" fill-rule="nonzero"/><path fill="#050a30" d="M 135.867188 13.523438 C 135.589844 12.179688 135.113281 11.230469 134.480469 10.636719 C 133.847656 10.042969 132.941406 9.726562 131.832031 9.726562 C 130.960938 9.726562 130.132812 9.964844 129.378906 10.480469 C 128.628906 10.953125 128.035156 11.625 127.640625 12.417969 L 127.601562 12.417969 L 127.601562 1.304688 L 123.015625 1.304688 L 123.015625 31.199219 L 126.929688 31.199219 L 127.402344 29.222656 L 127.523438 29.222656 C 127.878906 29.933594 128.433594 30.488281 129.183594 30.921875 C 129.933594 31.320312 130.726562 31.554688 131.632812 31.554688 C 133.253906 31.554688 134.402344 30.804688 135.15625 29.339844 C 135.90625 27.878906 136.300781 25.546875 136.300781 22.421875 L 136.300781 19.101562 C 136.261719 16.6875 136.140625 14.828125 135.867188 13.523438 Z M 131.515625 22.105469 C 131.515625 23.648438 131.4375 24.832031 131.316406 25.703125 C 131.199219 26.574219 130.960938 27.207031 130.683594 27.5625 C 130.371094 27.917969 129.972656 28.117188 129.5 28.117188 C 129.105469 28.117188 128.746094 28.035156 128.433594 27.839844 C 128.113281 27.640625 127.839844 27.363281 127.640625 27.007812 L 127.640625 15.066406 C 127.796875 14.511719 128.074219 14.039062 128.472656 13.644531 C 128.867188 13.285156 129.300781 13.089844 129.738281 13.089844 C 130.210938 13.089844 130.605469 13.285156 130.84375 13.644531 C 131.121094 14.039062 131.277344 14.671875 131.398438 15.539062 C 131.515625 16.449219 131.554688 17.714844 131.554688 19.335938 L 131.554688 22.105469 Z M 131.515625 22.105469 " fill-opacity="1" fill-rule="nonzero"/></svg>