<svg xmlns="http://www.w3.org/2000/svg" xmlns:xlink="http://www.w3.org/1999/xlink" width="321" zoomAndPan="magnify" viewBox="0 0 240.75 30.000001" height="40" preserveAspectRatio="xMidYMid meet" version="1.0"><defs><filter x="0%" y="0%" width="100%" height="100%" id="06cb250a86"><feColorMatrix values="0 0 0 0 1 0 0 0 0 1 0 0 0 0 1 0 0 0 1 0" color-interpolation-filters="sRGB"/></filter><clipPath id="55e74bb046"><path d="M 3.761719 0.726562 L 236.746094 0.726562 L 236.746094 28.335938 L 3.761719 28.335938 Z M 3.761719 0.726562 " clip-rule="nonzero"/></clipPath><mask id="7d603a9859"><g filter="url(#06cb250a86)"><rect x="-24.075" width="288.9" fill="#000000" y="-3" height="36.000001" fill-opacity="0.2471"/></g></mask><clipPath id="4da9a1d83e"><path d="M 1 1 L 233.746094 1 L 233.746094 28.335938 L 1 28.335938 Z M 1 1 " clip-rule="nonzero"/></clipPath><clipPath id="25d7b2e4ca"><rect x="0" width="234" y="0" height="29"/></clipPath></defs><g clip-path="url(#55e74bb046)"><g mask="url(#7d603a9859)"><g transform="matrix(1, 0, 0, 1, 3, 0.000000000000005773)"><g clip-path="url(#25d7b2e4ca)"><g clip-path="url(#4da9a1d83e)"><path fill="#40b0bf" d="M 3.976562 1.304688 L 230.59375 1.304688 C 230.980469 1.304688 231.351562 1.378906 231.707031 1.527344 C 232.0625 1.675781 232.378906 1.886719 232.652344 2.15625 C 232.921875 2.429688 233.132812 2.746094 233.28125 3.101562 C 233.429688 3.457031 233.5 3.828125 233.5 4.210938 L 233.5 25.28125 C 233.5 25.667969 233.429688 26.039062 233.28125 26.394531 C 233.132812 26.75 232.921875 27.066406 232.652344 27.335938 C 232.378906 27.609375 232.0625 27.820312 231.707031 27.96875 C 231.351562 28.117188 230.980469 28.1875 230.59375 28.1875 L 3.976562 28.1875 C 3.589844 28.1875 3.21875 28.117188 2.863281 27.96875 C 2.507812 27.820312 2.191406 27.609375 1.921875 27.335938 C 1.648438 27.066406 1.4375 26.75 1.289062 26.394531 C 1.144531 26.039062 1.070312 25.667969 1.070312 25.28125 L 1.070312 4.210938 C 1.070312 3.828125 1.144531 3.457031 1.289062 3.101562 C 1.4375 2.746094 1.648438 2.429688 1.921875 2.15625 C 2.191406 1.886719 2.507812 1.675781 2.863281 1.527344 C 3.21875 1.378906 3.589844 1.304688 3.976562 1.304688 Z M 3.976562 1.304688 " fill-opacity="1" fill-rule="nonzero"/></g></g></g></g></g></svg>